# xmcd CD database file
#
# Track frame offsets:
#	150
#	20350
#	50465
#	68750
#	94848
#	129402
#	148419
#
# Disc length: 2202 seconds
#
# Revision: 0
# Processed by: cddbd v1.5PL3 Copyright (c) Steve Scherf et al.
# Submitted via: CDex 1.51
#
DISCID=60089807
DTITLE=Jennifer Lopez - the reel me
DYEAR=2004
DGENRE=R&B
TTITLE0=Baby I Love U !
TTITLE1=Jenny From The Block (Seismic Crew's Latin Disco Trip)
TTITLE2=All I Have (feat. LL Cool J) (Ignorants Mix)
TTITLE3=I'm Glad (Paul Oakenfold Perfecto Remix)
TTITLE4=The One (Bastone and Burnsz Club Mix)
TTITLE5=Baby I Love U ! (R.Kelly Remix)
TTITLE6=I'm Grad (Big Brovaz Remix)
EXTD=YEAR: 2004
EXTT0=
EXTT1=
EXTT2=
EXTT3=
EXTT4=
EXTT5=
EXTT6=
PLAYORDER=
